#!OML:ASF C:\ViconDB\ViconDB\414\Spring2016\042216\male.ASF
:FULLY-SPECIFIED
:DEGREES
994
root 44.9606 17.8369 11.4038 899.1 64.2006 1259.08
lowerback -3.56719 -1.19331 5.0016
upperback -0.754185 -1.75468 -0.679133
thorax 1.05134 -0.859818 -3.5805
lowerneck 1.80487 16.1599 1.98097
upperneck 2.08788 22.0286 -8.01686
head 1.574 11.0485 -2.46616
rclavicle 6.36111e-015 9.54166e-015
rhumerus -30.1252 -3.96941 -93.2729
rradius 24.8475
rwrist 36.2539
rhand 13.8398 -18.8197
rfingers 7.12502
rthumb 38.7585 -44.4085
lclavicle 6.36111e-015 9.54166e-015
lhumerus -35.7918 16.4096 85.7704
lradius 30.4347
lwrist -19.9831
lhand -7.52901 14.1082
lfingers 7.12502
lthumb 18.362 43.2616
rfemur -2.89299 17.2352 20.8961
rtibia 22.7997
rfoot -21.6708 -12.9568
rtoes -13.8537
lfemur -7.07154 -4.87458 -17.5353
ltibia 23.3232
lfoot -27.9339 -15.5609
ltoes -16.981
995
root 44.9597 17.8354 11.404 899.31 64.2841 1259.35
lowerback -3.53877 -1.17795 5.13164
upperback -0.75003 -1.7377 -0.665046
thorax 1.03786 -0.851301 -3.63773
lowerneck 1.81935 16.1628 2.0064
upperneck 2.10581 22.0363 -8.03728
head 1.5836 11.0525 -2.47554
rclavicle 4.07509e-015 -5.36719e-015
rhumerus -30.1464 -3.94502 -93.2957
rradius 24.8564
rwrist 36.2238
rhand 13.7915 -18.8541
rfingers 7.12502
rthumb 38.7129 -44.4558
lclavicle 4.07509e-015 -5.36719e-015
lhumerus -35.813 16.4549 85.7204
lradius 30.4324
lwrist -20.168
lhand -7.40456 13.9038
lfingers 7.12502
lthumb 18.4817 43.0459
rfemur -2.86529 17.2608 21.0338
rtibia 22.787
rfoot -21.7072 -12.834
rtoes -13.8438
lfemur -7.03132 -4.82625 -17.3964
ltibia 23.3345
lfoot -28.1803 -15.3195
ltoes -17.8664
996
root 44.9593 17.8364 11.4061 899.101 64.3122 1259.11
lowerback -3.56706 -1.18012 4.98557
upperback -0.752066 -1.73653 -0.687255
thorax 1.05548 -0.850671 -3.57923
lowerneck 1.84472 16.1694 2.02156
upperneck 2.10072 22.0493 -8.086
head 1.58668 11.06 -2.49388
rclavicle -2.03754e-014 -3.37934e-015
rhumerus -30.1636 -3.86443 -93.3203
rradius 24.8874
rwrist 36.1439
rhand 13.8021 -18.9779
rfingers 7.12502
rthumb 38.7229 -44.5768
lclavicle -2.03754e-014 -3.37934e-015
lhumerus -35.8081 16.5212 85.72
lradius 30.4379
lwrist -20.2082
lhand -7.36632 13.8363
lfingers 7.12502
lthumb 18.5185 42.9748
rfemur -2.883 17.1586 20.9007
rtibia 22.7684
rfoot -21.6444 -12.7375
rtoes -13.9635
lfemur -7.04324 -4.84199 -17.5133
ltibia 23.3528
lfoot -27.859 -15.542
ltoes -16.7763
997
root 44.9595 17.8356 11.4078 899.074 64.3537 1259.13
lowerback -3.54602 -1.17408 4.9765
upperback -0.742176 -1.72735 -0.698803
thorax 1.05472 -0.846041 -3.58532
lowerneck 1.85887 16.1728 2.03413
upperneck 2.11669 22.0532 -8.05804
head 1.58758 11.0619 -2.48767
rclavicle 1.47101e-014 -5.56597e-015
rhumerus -30.1751 -3.94499 -93.2998
rradius 24.8895
rwrist 36.2472
rhand 13.8946 -18.9444
rfingers 7.12502
rthumb 38.8101 -44.5185
lclavicle 1.47101e-014 -5.56597e-015
lhumerus -35.8248 16.6607 85.621
lradius 30.388
lwrist -20.5391
lhand -7.26368 13.6364
lfingers 7.12502
lthumb 18.6172 42.7656
rfemur -2.82895 17.2392 20.9388
rtibia 22.7613
rfoot -21.5648 -12.8535
rtoes -13.8498
lfemur -6.98977 -4.84458 -17.5036
ltibia 23.3595
lfoot -28.0603 -15.3287
ltoes -17.4425
998
root 44.9592 17.8357 11.4096 899.188 64.3849 1259.25
lowerback -3.5729 -1.17429 4.99363
upperback -0.740936 -1.72985 -0.677308
thorax 1.07095 -0.846706 -3.57357
lowerneck 1.88385 16.1766 2.01604
upperneck 2.09993 22.0589 -8.08022
head 1.57909 11.0658 -2.49485
rclavicle 6.11263e-015 -5.96354e-015
rhumerus -30.1874 -3.97991 -93.2692
rradius 24.8994
rwrist 36.322
rhand 13.9265 -18.9537
rfingers 7.12502
rthumb 38.8402 -44.5193
lclavicle 6.11263e-015 -5.96354e-015
lhumerus -35.8295 16.7948 85.5816
lradius 30.3541
lwrist -20.7215
lhand -7.28448 13.5532
lfingers 7.12502
lthumb 18.5972 42.6843
rfemur -2.84512 17.2879 21.0073
rtibia 22.7749
rfoot -21.5943 -12.8908
rtoes -13.7955
lfemur -6.99332 -4.789 -17.4329
ltibia 23.3455
lfoot -27.8085 -15.59
ltoes -16.5631
999
root 44.96 17.8358 11.4085 899.198 64.4659 1259.28
lowerback -3.58906 -1.16564 5.00757
upperback -0.747439 -1.71936 -0.684138
thorax 1.07369 -0.84143 -3.58841
lowerneck 1.90359 16.1964 2.04302
upperneck 2.14869 22.091 -8.07807
head 1.59654 11.0816 -2.49574
rclavicle -4.21051e-014 -5.96354e-016
rhumerus -30.2013 -4.08777 -93.235
rradius 24.8321
rwrist 36.5388
rhand 13.8932 -18.8138
rfingers 7.12502
rthumb 38.8088 -44.3884
lclavicle -4.21051e-014 -5.96354e-016
lhumerus -35.8407 16.7393 85.5929
lradius 30.3962
lwrist -20.6811
lhand -7.12584 13.7384
lfingers 7.12502
lthumb 18.7498 42.8547
rfemur -2.84351 17.2296 21.0078
rtibia 22.7698
rfoot -21.5642 -12.7417
rtoes -13.8784
lfemur -6.96103 -4.76796 -17.4219
ltibia 23.3493
lfoot -27.5585 -15.7502
ltoes -15.4864
1000
root 44.9596 17.8362 11.4084 899.271 64.5156 1259.35
lowerback -3.61171 -1.16191 5.02144
upperback -0.766644 -1.71537 -0.677135
thorax 1.06676 -0.839813 -3.58911
lowerneck 1.90221 16.2046 2.04272
upperneck 2.21052 22.1104 -8.09108
head 1.6199 11.0904 -2.49542
rclavicle -2.92586e-014 -3.97569e-015
rhumerus -30.2354 -4.00233 -93.2623
rradius 24.8289
rwrist 36.3967
rhand 13.8426 -18.912
rfingers 7.12502
rthumb 38.7611 -44.5
lclavicle -2.92586e-014 -3.97569e-015
lhumerus -35.8737 16.7191 85.6173
lradius 30.4446
lwrist -20.6283
lhand -7.11683 13.9196
lfingers 7.12502
lthumb 18.7585 43.0351
rfemur -2.86236 17.2541 21.0287
rtibia 22.7565
rfoot -21.6061 -12.6708
rtoes -13.7024
lfemur -6.97546 -4.7364 -17.3888
ltibia 23.3613
lfoot -27.9394 -15.3947
ltoes -16.8957
1001
root 44.9591 17.8369 11.4083 899.306 64.549 1259.4
lowerback -3.63344 -1.1637 5.02819
upperback -0.758972 -1.7195 -0.668433
thorax 1.0865 -0.841164 -3.58477
lowerneck 1.85977 16.2223 2.02117
upperneck 2.28208 22.1418 -8.09165
head 1.64982 11.1038 -2.48382
rclavicle -1.30825e-014 7.7526e-015
rhumerus -30.2312 -3.99245 -93.2579
rradius 24.8358
rwrist 36.3072
rhand 13.8377 -18.9547
rfingers 7.12502
rthumb 38.7565 -44.5441
lclavicle -1.30825e-014 7.7526e-015
lhumerus -35.8601 16.7645 85.6099
lradius 30.4159
lwrist -20.6946
lhand -7.11787 13.8715
lfingers 7.12502
lthumb 18.7575 42.9871
rfemur -2.86791 17.2684 21.0515
rtibia 22.7603
rfoot -21.571 -12.6686
rtoes -13.6422
lfemur -6.95867 -4.74947 -17.3671
ltibia 23.3591
lfoot -28.4107 -14.8631
ltoes -18.6213
1002
root 44.9587 17.8368 11.4098 899.421 64.5753 1259.54
lowerback -3.62539 -1.15463 5.08987
upperback -0.759728 -1.70918 -0.675087
thorax 1.08017 -0.836036 -3.62572
lowerneck 1.86169 16.2139 2.03443
upperneck 2.29909 22.1318 -8.08408
head 1.65509 11.0985 -2.48305
rclavicle -5.59082e-016 7.95139e-016
rhumerus -30.2469 -4.07314 -93.264
rradius 24.8479
rwrist 36.3008
rhand 13.8267 -19.0267
rfingers 7.12502
rthumb 38.7461 -44.619
lclavicle -5.59082e-016 7.95139e-016
lhumerus -35.8624 16.817 85.543
lradius 30.4218
lwrist -20.8401
lhand -7.02245 13.6217
lfingers 7.12502
lthumb 18.8492 42.7284
rfemur -2.8577 17.2445 21.127
rtibia 22.7524
rfoot -21.4947 -12.6976
rtoes -13.6553
lfemur -6.94824 -4.7412 -17.2941
ltibia 23.3667
lfoot -28.1246 -15.139
ltoes -17.6603
1003
root 44.9587 17.8356 11.4112 899.315 64.608 1259.47
lowerback -3.60069 -1.15748 5.04134
upperback -0.749977 -1.71021 -0.684999
thorax 1.07745 -0.836682 -3.60822
lowerneck 1.89059 16.2156 1.98778
upperneck 2.25651 22.1313 -8.09918
head 1.63279 11.0998 -2.48645
rclavicle 2.4699e-014 -3.37934e-015
rhumerus -30.2614 -4.00869 -93.2863
rradius 24.8682
rwrist 36.1882
rhand 13.8979 -19.0656
rfingers 7.12502
rthumb 38.8132 -44.6389
lclavicle 2.4699e-014 -3.37934e-015
lhumerus -35.8645 16.8864 85.5122
lradius 30.3932
lwrist -20.9282
lhand -7.09028 13.5284
lfingers 7.12502
lthumb 18.784 42.6415
rfemur -2.82725 17.1518 21.0975
rtibia 22.7577
rfoot -21.4513 -12.6225
rtoes -13.8942
lfemur -6.89737 -4.71662 -17.3269
ltibia 23.3627
lfoot -27.6927 -15.5553
ltoes -15.9292
1004
root 44.9576 17.8353 11.4121 899.288 64.65 1259.46
lowerback -3.59092 -1.15239 5.02999
upperback -0.748279 -1.70257 -0.686031
thorax 1.0748 -0.83296 -3.60237
lowerneck 1.88137 16.2013 1.96477
upperneck 2.2669 22.1173 -8.14332
head 1.64013 11.0927 -2.49562
rclavicle -5.42309e-014 3.97569e-016
rhumerus -30.2891 -3.98104 -93.2878
rradius 24.8878
rwrist 36.167
rhand 13.9304 -19.0871
rfingers 7.12502
rthumb 38.8439 -44.6517
lclavicle -5.42309e-014 3.97569e-016
lhumerus -35.8691 17.0159 85.4617
lradius 30.3715
lwrist -21.123
lhand -7.06479 13.5878
lfingers 7.12502
lthumb 18.8085 42.6985
rfemur -2.81546 17.1258 21.0898
rtibia 22.7525
rfoot -21.4608 -12.5597
rtoes -13.6936
lfemur -6.87888 -4.76413 -17.3322
ltibia 23.3685
lfoot -27.4081 -15.7398
ltoes -14.8158
1005
root 44.9571 17.8356 11.4132 899.255 64.6836 1259.42
lowerback -3.60431 -1.15047 5.00059
upperback -0.762111 -1.69895 -0.701958
thorax 1.06878 -0.831604 -3.6023
lowerneck 1.89601 16.2148 2.02425
upperneck 2.30133 22.1423 -8.17364
head 1.66151 11.1052 -2.51071
rclavicle 1.39149e-015 -9.54166e-015
rhumerus -30.3117 -3.95493 -93.3205
rradius 24.8679
rwrist 36.1086
rhand 13.9113 -19.0919
rfingers 7.12502
rthumb 38.8259 -44.6616
lclavicle 1.39149e-015 -9.54166e-015
lhumerus -35.8802 16.8783 85.5182
lradius 30.4359
lwrist -20.8494
lhand -7.10237 13.7831
lfingers 7.12502
lthumb 18.7724 42.8973
rfemur -2.83262 17.1426 21.0661
rtibia 22.7609
rfoot -21.469 -12.4963
rtoes -13.8844
lfemur -6.86769 -4.79347 -17.3521
ltibia 23.3586
lfoot -27.4055 -15.6714
ltoes -14.7973
1006
root 44.956 17.8362 11.414 899.309 64.6983 1259.44
lowerback -3.64462 -1.1495 5.00765
upperback -0.773035 -1.69956 -0.699769
thorax 1.07987 -0.831681 -3.60493
lowerneck 1.90756 16.2136 2.0668
upperneck 2.31715 22.1498 -8.25126
head 1.68063 11.1094 -2.53891
rclavicle -5.00689e-015 8.34896e-015
rhumerus -30.3174 -4.01701 -93.2853
rradius 24.8307
rwrist 36.2507
rhand 13.9147 -18.9368
rfingers 7.12502
rthumb 38.8291 -44.5056
lclavicle -5.00689e-015 8.34896e-015
lhumerus -35.8635 16.7321 85.5777
lradius 30.404
lwrist -20.794
lhand -7.10629 13.7377
lfingers 7.12502
lthumb 18.7686 42.8523
rfemur -2.8815 17.1358 21.0573
rtibia 22.7593
rfoot -21.5227 -12.3686
rtoes -13.8971
lfemur -6.90648 -4.78378 -17.3343
ltibia 23.3563
lfoot -27.4744 -15.5692
ltoes -15.175
